<?xml version="1.0" encoding="UTF-8"?>
<svg width="1449px" height="384px" viewBox="0 0 1449 384" version="1.1" xmlns="http://www.w3.org/2000/svg" xmlns:xlink="http://www.w3.org/1999/xlink">
    <!-- Generator: Sketch 3.8.1 (29687) - http://www.bohemiancoding.com/sketch -->
    <title>Shape</title>
    <desc>Created with Sketch.</desc>
    <defs>
        <linearGradient x1="50%" y1="0%" x2="50%" y2="100%" id="linearGradient-1">
            <stop stop-color="#FFFFFF" offset="0%"></stop>
            <stop stop-color="#F3F3F3" offset="19.8003029%"></stop>
            <stop stop-color="#DCDCDC" offset="100%"></stop>
        </linearGradient>
        <path d="M1420.084,156.997 L1420.084,156.85 L1420.067,156.85 C1409.666,68.521 1334.562,0 1243.44,0 C1145.2,0 1065.563,79.634 1065.563,177.872 C1065.563,276.108 1145.2,355.744 1243.44,355.744 C1319.465,355.744 1384.336,308.042 1409.79,240.94 L1363.758,240.94 C1341.039,284.197 1295.69,313.705 1243.441,313.705 C1175.572,313.705 1119.332,263.931 1109.226,198.894 L1420.084,198.894 L1420.084,198.733 C1420.884,191.889 1421.31,184.93 1421.31,177.872 C1421.31,170.809 1420.885,163.846 1420.084,156.997 L1420.084,156.997 Z M1109.226,156.85 C1119.33,91.813 1175.572,42.037 1243.441,42.037 C1311.306,42.037 1367.542,91.813 1377.646,156.85 L1109.226,156.85 L1109.226,156.85 Z M910.715,313.705 C835.705,313.705 774.89,252.892 774.89,177.872 C774.89,102.851 835.705,42.036 910.715,42.036 C962.971,42.036 1008.326,71.547 1031.046,114.807 L1077.077,114.807 C1051.623,47.703 986.747,0 910.715,0 C834.693,0 769.821,47.7 744.367,114.801 C718.911,47.7 654.036,0 578.013,0 C486.888,0 411.783,68.521 401.381,156.85 L355.748,156.85 L355.748,28.458 C355.748,12.74 343.005,0 327.287,0 L28.461,0 C12.744,0 0,12.74 0,28.458 L0,327.286 C0,343.006 12.744,355.744 28.461,355.744 L327.287,355.744 C343.005,355.744 355.748,343.006 355.748,327.286 L355.748,198.895 L401.381,198.895 C411.783,287.221 486.888,355.745 578.013,355.745 C653.943,355.745 718.752,308.161 744.274,241.189 L698.206,241.189 C675.442,284.31 630.162,313.706 578.014,313.706 C510.145,313.706 453.906,263.932 443.801,198.895 L734.091,198.895 C744.493,287.221 819.597,355.745 910.716,355.745 C986.747,355.745 1051.621,308.043 1077.076,240.941 L1031.045,240.941 C1008.323,284.197 962.97,313.705 910.715,313.705 L910.715,313.705 Z M161.017,32.963 L194.732,32.963 L194.732,166.37 L161.017,166.37 L161.017,32.963 L161.017,32.963 Z M177.874,322.778 C104.196,322.778 44.47,263.053 44.47,189.377 C44.47,132.355 80.247,83.699 130.575,64.608 L130.575,99.13 C98.131,116.17 75.999,150.185 75.999,189.377 C75.999,245.639 121.608,291.25 177.874,291.25 C234.137,291.25 279.749,245.639 279.749,189.377 C279.749,150.188 257.619,116.173 225.177,99.133 L225.177,64.61 C275.503,83.701 311.278,132.356 311.278,189.377 C311.277,263.054 251.551,322.778 177.874,322.778 L177.874,322.778 Z M443.799,156.85 C453.904,91.813 510.143,42.037 578.012,42.037 C645.876,42.037 702.119,91.813 712.225,156.85 L443.799,156.85 L443.799,156.85 Z" id="path-2"></path>
        <filter x="-50%" y="-50%" width="200%" height="200%" filterUnits="objectBoundingBox" id="filter-3">
            <feOffset dx="0" dy="3" in="SourceAlpha" result="shadowOffsetOuter1"></feOffset>
            <feGaussianBlur stdDeviation="7" in="shadowOffsetOuter1" result="shadowBlurOuter1"></feGaussianBlur>
            <feColorMatrix values="0 0 0 0 0   0 0 0 0 0   0 0 0 0 0  0 0 0 0.511180933 0" type="matrix" in="shadowBlurOuter1"></feColorMatrix>
        </filter>
    </defs>
    <g id="Page-1" stroke="none" stroke-width="1" fill="none" fill-rule="evenodd">
        <g id="Layer_8" transform="translate(14.000000, 11.000000)">
            <g id="Shape">
                <use fill="black" fill-opacity="1" filter="url(#filter-3)" xlink:href="#path-2"></use>
                <use fill="url(#linearGradient-1)" fill-rule="evenodd" xlink:href="#path-2"></use>
            </g>
        </g>
    </g>
</svg>